#!OML:ASF H:\LiuWeirdWalks\Patient Classification 1\Patient 1\Session 1\male.ASF
:FULLY-SPECIFIED
:DEGREES
1101
root 1.04617 18.1056 26.7277 3.73826 -5.96318 -5.76192
lowerback 2.50385 -2.45525 2.0367
upperback 1.02874 -3.21677 5.48626
thorax -0.139424 -1.62591 4.59675
lowerneck -18.9844 0.777434 6.12047
upperneck 22.188 0.67128 -5.76833
head 10.2645 0.123653 -2.98626
rclavicle -7.69297e-014 2.94201e-014
rhumerus -37.5705 -11.9216 -71.0783
rradius 24.7553
rwrist -3.47205
rhand -16.9026 -1.24063
rfingers 7.12502
rthumb 9.32928 -31.0142
lclavicle -7.69297e-014 2.94201e-014
lhumerus -31.5327 0.383993 87.2186
lradius 37.2247
lwrist 10.0069
lhand -13.0605 -2.59334
lfingers 7.12502
lthumb 13.0349 26.9794
rfemur 7.05933 2.32262 29.2708
rtibia 15.0439
rfoot -9.15552 -12.9646
rtoes -10.002
lfemur -29.8849 1.69479 -7.43199
ltibia 20.0387
lfoot -7.42881 22.947
ltoes -15.9266
1102
root 1.06871 18.1028 26.802 3.75276 -6.18596 -5.74994
lowerback 2.50532 -2.19007 2.44416
upperback 0.965266 -2.84772 5.28098
thorax -0.260376 -1.43703 4.14629
lowerneck -19.0723 0.433526 5.79959
upperneck 22.3513 0.180704 -5.35769
head 10.3058 -0.0795263 -2.85805
rclavicle -8.54774e-015 3.89618e-014
rhumerus -38.053 -12.6207 -70.8483
rradius 24.9593
rwrist -3.60867
rhand -16.83 -1.42211
rfingers 7.12502
rthumb 9.39938 -31.1925
lclavicle -8.54774e-015 3.89618e-014
lhumerus -31.5923 -0.497547 87.4037
lradius 37.1252
lwrist 9.92568
lhand -12.9725 -2.6547
lfingers 7.12502
lthumb 13.1197 26.9126
rfemur 7.25192 2.37356 29.1042
rtibia 15.1391
rfoot -9.12769 -12.7835
rtoes -10.3922
lfemur -29.7615 1.71027 -7.54675
ltibia 20.0117
lfoot -7.346 22.6597
ltoes -16.0488
1103
root 1.09191 18.0991 26.8781 3.76796 -6.41772 -5.75826
lowerback 2.48322 -1.97407 2.78718
upperback 0.922192 -2.54923 5.12
thorax -0.331028 -1.28521 3.77843
lowerneck -19.133 0.150968 5.53661
upperneck 22.4871 -0.223611 -5.01614
head 10.3414 -0.245937 -2.75161
rclavicle -1.82882e-014 -8.74653e-015
rhumerus -38.4192 -13.1579 -70.6767
rradius 25.1423
rwrist -3.80053
rhand -16.7127 -1.6605
rfingers 7.12502
rthumb 9.51255 -31.4258
lclavicle -1.82882e-014 -8.74653e-015
lhumerus -31.6516 -1.21343 87.5579
lradius 37.0362
lwrist 9.90789
lhand -12.911 -2.68813
lfingers 7.12502
lthumb 13.1789 26.8753
rfemur 7.45159 2.44435 28.9572
rtibia 15.2354
rfoot -9.09277 -12.606
rtoes -10.8017
lfemur -29.6164 1.71557 -7.63417
ltibia 19.9951
lfoot -7.29098 22.3775
ltoes -16.1511
1104
root 1.11437 18.0941 26.956 3.78362 -6.64541 -5.83945
lowerback 2.47135 -1.83762 3.06991
upperback 0.892127 -2.35906 5.03421
thorax -0.379 -1.18882 3.52578
lowerneck -19.157 -0.0288154 5.39304
upperneck 22.5731 -0.49071 -4.7884
head 10.362 -0.352736 -2.68544
rclavicle -3.19049e-014 -3.26007e-014
rhumerus -38.6592 -13.4758 -70.5898
rradius 25.2945
rwrist -3.97476
rhand -16.5999 -1.86192
rfingers 7.12502
rthumb 9.62136 -31.6222
lclavicle -3.19049e-014 -3.26007e-014
lhumerus -31.7378 -1.65117 87.645
lradius 36.9808
lwrist 9.90408
lhand -12.8643 -2.66878
lfingers 7.12502
lthumb 13.224 26.8918
rfemur 7.66526 2.5283 28.8914
rtibia 15.3271
rfoot -9.05589 -12.4407
rtoes -11.1876
lfemur -29.4523 1.72617 -7.64258
ltibia 19.9951
lfoot -7.26511 22.0915
ltoes -16.2707
1105
root 1.13722 18.0885 27.0353 3.8096 -6.87788 -5.94001
lowerback 2.42845 -1.87842 3.09037
upperback 0.904513 -2.41701 5.08798
thorax -0.338386 -1.21815 3.56989
lowerneck -19.151 0.0139441 5.47352
upperneck 22.5964 -0.452914 -4.79913
head 10.3714 -0.329676 -2.69804
rclavicle -1.16289e-014 -1.82882e-014
rhumerus -38.5808 -13.256 -70.6952
rradius 25.3521
rwrist -4.11227
rhand -16.511 -1.93167
rfingers 7.12502
rthumb 9.70716 -31.688
lclavicle -1.16289e-014 -1.82882e-014
lhumerus -31.8363 -1.45911 87.5986
lradius 36.9567
lwrist 9.91692
lhand -12.8556 -2.65347
lfingers 7.12502
lthumb 13.2324 26.9065
rfemur 7.8778 2.62751 28.8452
rtibia 15.4099
rfoot -9.00239 -12.2795
rtoes -11.5855
lfemur -29.2817 1.71881 -7.62451
ltibia 20.0101
lfoot -7.26277 21.8475
ltoes -16.3891
1106
root 1.16063 18.0822 27.1163 3.83811 -7.11573 -6.04257
lowerback 2.38215 -2.01866 2.95629
upperback 0.931566 -2.61288 5.2164
thorax -0.264682 -1.31752 3.78126
lowerneck -19.1053 0.182407 5.68001
upperneck 22.5728 -0.242217 -4.94172
head 10.3664 -0.23261 -2.75343
rclavicle 1.55052e-014 -4.69132e-014
rhumerus -38.3417 -12.7432 -70.8983
rradius 25.3419
rwrist -4.16539
rhand -16.476 -1.82531
rfingers 7.12502
rthumb 9.74092 -31.58
lclavicle 1.55052e-014 -4.69132e-014
lhumerus -31.9634 -0.9276 87.4798
lradius 36.9494
lwrist 9.94689
lhand -12.8673 -2.63815
lfingers 7.12502
lthumb 13.2211 26.9226
rfemur 8.13427 2.72481 28.795
rtibia 15.4074
rfoot -8.90903 -12.1045
rtoes -11.9665
lfemur -29.1291 1.69514 -7.60127
ltibia 20.1051
lfoot -7.34797 21.6464
ltoes -16.4994
1107
root 1.18496 18.0755 27.1996 3.87333 -7.34927 -6.15345
lowerback 2.32139 -2.17645 2.81416
upperback 0.960009 -2.83359 5.35673
thorax -0.177346 -1.42976 4.0092
lowerneck -19.049 0.370616 5.90383
upperneck 22.5428 -0.0025079 -5.10751
head 10.3596 -0.123473 -2.81582
rclavicle -3.97569e-015 -3.65764e-014
rhumerus -38.0908 -12.1844 -71.1078
rradius 25.3176
rwrist -4.15163
rhand -16.4734 -1.59857
rfingers 7.12502
rthumb 9.74342 -31.3532
lclavicle -3.97569e-015 -3.65764e-014
lhumerus -32.1025 -0.318736 87.3429
lradius 36.9413
lwrist 9.94806
lhand -12.8805 -2.64625
lfingers 7.12502
lthumb 13.2084 26.9153
rfemur 8.41823 2.80524 28.7434
rtibia 15.3478
rfoot -8.78732 -11.9106
rtoes -12.3427
lfemur -28.9843 1.62714 -7.56184
ltibia 20.2517
lfoot -7.51436 21.5108
ltoes -16.5497
1108
root 1.21241 18.0646 27.2844 3.88846 -7.5445 -6.59292
lowerback 2.37008 -2.66513 2.57426
upperback 1.07168 -3.49953 5.80078
thorax -0.0133776 -1.76947 4.62162
lowerneck -19.0168 0.954536 6.51166
upperneck 22.4475 0.776833 -5.68024
head 10.374 0.216342 -3.01241
rclavicle -2.74323e-014 -8.74653e-015
rhumerus -37.3035 -10.661 -71.6505
rradius 25.1786
rwrist -4.13651
rhand -16.4846 -1.37136
rfingers 7.12502
rthumb 9.73266 -31.1265
lclavicle -2.74323e-014 -8.74653e-015
lhumerus -32.2811 1.42172 86.9477
lradius 37.0026
lwrist 9.81919
lhand -12.8674 -2.69754
lfingers 7.12502
lthumb 13.221 26.8632
rfemur 8.80389 2.80956 29.0315
rtibia 15.222
rfoot -8.63283 -11.675
rtoes -12.7269
lfemur -28.8028 1.61463 -7.19013
ltibia 20.4592
lfoot -7.71084 21.3249
ltoes -16.6343
1109
root 1.23978 18.0539 27.3718 3.91715 -7.74219 -6.95108
lowerback 2.38163 -2.87474 2.66429
upperback 1.1231 -3.78276 6.02514
thorax 0.0608131 -1.91398 4.81091
lowerneck -19.0253 1.19808 6.76973
upperneck 22.4408 1.09265 -5.89196
head 10.3985 0.357474 -3.08766
rclavicle -3.97569e-016 -1.19271e-014
rhumerus -36.9899 -9.94846 -71.9027
rradius 25.1884
rwrist -4.15139
rhand -16.4688 -1.25167
rfingers 7.12502
rthumb 9.74792 -31.0061
lclavicle -3.97569e-016 -1.19271e-014
lhumerus -32.4272 2.20539 86.7654
lradius 37.017
lwrist 9.78394
lhand -12.8472 -2.71972
lfingers 7.12502
lthumb 13.2404 26.8398
rfemur 9.18521 2.81497 29.2251
rtibia 15.0747
rfoot -8.46762 -11.4362
rtoes -13.1066
lfemur -28.6286 1.58087 -6.91132
ltibia 20.6869
lfoot -7.93268 21.1878
ltoes -16.6846
1110
root 1.26785 18.0428 27.4619 3.95787 -7.94307 -7.28064
lowerback 2.36415 -3.06844 2.75746
upperback 1.17373 -4.04691 6.22492
thorax 0.148706 -2.04889 4.97054
lowerneck -19.0543 1.42392 7.01266
upperneck 22.4493 1.38177 -6.08176
head 10.432 0.48754 -3.15665
rclavicle 2.27608e-014 -8.66701e-014
rhumerus -36.7002 -9.24965 -72.1597
rradius 25.2584
rwrist -4.30001
rhand -16.4136 -1.30914
rfingers 7.12502
rthumb 9.80118 -31.061
lclavicle 2.27608e-014 -8.66701e-014
lhumerus -32.5655 2.92764 86.5848
lradius 37.0277
lwrist 9.75214
lhand -12.8384 -2.7471
lfingers 7.12502
lthumb 13.2489 26.8118
rfemur 9.54706 2.80513 29.3726
rtibia 14.9568
rfoot -8.32448 -11.1711
rtoes -13.4935
lfemur -28.437 1.54623 -6.67604
ltibia 20.9028
lfoot -8.13296 21.0731
ltoes -16.7437
1111
root 1.29512 18.0323 27.5533 4.01878 -8.16414 -7.4877
lowerback 2.29837 -3.13947 2.87569
upperback 1.18988 -4.14649 6.31371
thorax 0.207473 -2.09947 4.99458
lowerneck -19.0974 1.50246 7.10954
upperneck 22.5123 1.46892 -6.11473
head 10.471 0.531531 -3.17433
rclavicle 5.05907e-014 3.97569e-015
rhumerus -36.5967 -8.90876 -72.301
rradius 25.4048
rwrist -4.51994
rhand -16.309 -1.5348
rfingers 7.12502
rthumb 9.90206 -31.2819
lclavicle 5.05907e-014 3.97569e-015
lhumerus -32.6949 3.24219 86.4923
lradius 37.0248
lwrist 9.80071
lhand -12.8669 -2.76203
lfingers 7.12502
lthumb 13.2215 26.7987
rfemur 9.79678 2.84827 29.3924
rtibia 14.9994
rfoot -8.25397 -10.9381
rtoes -13.8821
lfemur -28.2015 1.50128 -6.57489
ltibia 21.0063
lfoot -8.26855 20.9911
ltoes -16.7644
1112
root 1.32135 18.0227 27.646 4.0979 -8.40734 -7.51594
lowerback 2.14587 -3.09013 2.94099
upperback 1.18336 -4.08957 6.2877
thorax 0.275841 -2.07024 4.92033
lowerneck -19.1241 1.44066 7.07002
upperneck 22.5571 1.3665 -6.01243
head 10.4835 0.493419 -3.1465
rclavicle 4.45278e-014 -3.10104e-014
rhumerus -36.6552 -8.92217 -72.3251
rradius 25.6057
rwrist -4.76439
rhand -16.1703 -1.84212
rfingers 7.12502
rthumb 10.0358 -31.5828
lclavicle 4.45278e-014 -3.10104e-014
lhumerus -32.7955 3.18556 86.4907
lradius 37.0147
lwrist 9.887
lhand -12.9155 -2.73277
lfingers 7.12502
lthumb 13.1747 26.831
rfemur 9.92463 2.94112 29.2204
rtibia 15.2068
rfoot -8.26434 -10.7288
rtoes -14.2705
lfemur -27.9276 1.43542 -6.66862
ltibia 20.9997
lfoot -8.34509 20.9267
ltoes -16.7661
